<svg xmlns="http://www.w3.org/2000/svg" viewBox="0 0 64 64"><defs><style>.cls-1{fill:#0072ff;}</style></defs><title>Person Image</title><g id="Layer_2" data-name="Layer 2"><path class="cls-1" d="M52.64,4H11.36A7.36,7.36,0,0,0,4,11.36V52.64A7.36,7.36,0,0,0,11.36,60H52.64A7.36,7.36,0,0,0,60,52.64V11.36A7.36,7.36,0,0,0,52.64,4ZM32,16a8,8,0,1,1-8,8A8,8,0,0,1,32,16ZM45.9,48H18.1A2.1,2.1,0,0,1,16,45.9a13.87,13.87,0,0,1,6.09-11.49,3.57,3.57,0,0,1,3.82-.08,12,12,0,0,0,12.18,0,3.57,3.57,0,0,1,3.82.08A13.87,13.87,0,0,1,48,45.9,2.1,2.1,0,0,1,45.9,48Z"/></g></svg>